<svg xmlns="http://www.w3.org/2000/svg" xmlns:xlink="http://www.w3.org/1999/xlink" version="1.1" width="1000" height="1000" viewBox="0 0 1000 1000" xml:space="preserve">
<desc>Created with Fabric.js 3.5.0</desc>
<defs>
</defs>
<rect x="0" y="0" width="100%" height="100%" fill="#ffffff"/>
<g transform="matrix(-0.7874 0 0 0.7874 499.9991 499.9995)" id="424753">
<g style="" vector-effect="non-scaling-stroke">
		<g transform="matrix(1 0 0 1 268.87 293.165)">
<ellipse style="stroke: none; stroke-width: 1; stroke-dasharray: none; stroke-linecap: butt; stroke-dashoffset: 0; stroke-linejoin: miter; stroke-miterlimit: 4; is-custom-font: none; font-file-url: none; fill: rgb(63,61,86); fill-rule: nonzero; opacity: 0.1;" cx="0" cy="0" rx="22.09" ry="28.91"/>
</g>
		<g transform="matrix(1 0 0 1 268.915 204.82)">
<path style="stroke: none; stroke-width: 1; stroke-dasharray: none; stroke-linecap: butt; stroke-dashoffset: 0; stroke-linejoin: miter; stroke-miterlimit: 4; is-custom-font: none; font-file-url: none; fill: rgb(63,61,86); fill-rule: nonzero; opacity: 0.1;" transform=" translate(-868.915, -654.825)" d="M 886.35 619.49 A 34.83 34.83 0 0 0 891 601.82 c 0 -16 -9.89 -28.91 -22.09 -28.91 s -22.08 12.94 -22.08 28.91 a 34.83 34.83 0 0 0 4.61 17.67 a 36.15 36.15 0 0 0 0 35.33 a 36.17 36.17 0 0 0 0 35.34 a 34.83 34.83 0 0 0 -4.61 17.67 c 0 16 9.89 28.91 22.08 28.91 S 891 723.8 891 707.83 a 34.83 34.83 0 0 0 -4.61 -17.67 a 36.17 36.17 0 0 0 0 -35.34 a 36.15 36.15 0 0 0 0 -35.33 Z" stroke-linecap="round"/>
</g>
		<g transform="matrix(1 0 0 1 268.87 116.485)">
<ellipse style="stroke: none; stroke-width: 1; stroke-dasharray: none; stroke-linecap: butt; stroke-dashoffset: 0; stroke-linejoin: miter; stroke-miterlimit: 4; is-custom-font: none; font-file-url: none; fill: rgb(63,61,86); fill-rule: nonzero; opacity: 0.1;" cx="0" cy="0" rx="22.09" ry="28.91"/>
</g>
		<g transform="matrix(1 0 0 1 268.87 81.145)">
<ellipse style="stroke: none; stroke-width: 1; stroke-dasharray: none; stroke-linecap: butt; stroke-dashoffset: 0; stroke-linejoin: miter; stroke-miterlimit: 4; is-custom-font: none; font-file-url: none; fill: rgb(63,61,86); fill-rule: nonzero; opacity: 0.1;" cx="0" cy="0" rx="22.09" ry="28.91"/>
</g>
		<g transform="matrix(1 0 0 1 268.3842 -95.2666)">
<path style="stroke: none; stroke-width: 1; stroke-dasharray: none; stroke-linecap: butt; stroke-dashoffset: 0; stroke-linejoin: miter; stroke-miterlimit: 4; is-custom-font: none; font-file-url: none; fill: rgb(10,199,10); fill-rule: nonzero; opacity: 0.1;" transform=" translate(-868.3841, -354.7384)" d="M 951.55 289.33 a 106.47 106.47 0 0 0 8.22 -12.11 l -58 -9.53 l 62.77 0.47 a 106 106 0 0 0 2 -83.82 L 882.32 228 L 960 170.94 A 105.8 105.8 0 1 0 785.25 289.33 a 106 106 0 0 0 -12.06 19.29 l 75.33 39.14 l -80.32 -27 a 105.8 105.8 0 0 0 17 99.34 a 105.79 105.79 0 1 0 166.3 0 a 105.79 105.79 0 0 0 0 -130.81 Z" stroke-linecap="round"/>
</g>
		<g transform="matrix(1 0 0 1 268.4 22.2515)">
<path style="stroke: none; stroke-width: 1; stroke-dasharray: none; stroke-linecap: butt; stroke-dashoffset: 0; stroke-linejoin: miter; stroke-miterlimit: 4; is-custom-font: none; font-file-url: none; fill: rgb(0,0,0); fill-rule: nonzero; opacity: 0.01;" transform=" translate(-868.4, -472.2565)" d="M 762.61 354.74 a 105.31 105.31 0 0 0 22.64 65.4 a 105.79 105.79 0 1 0 166.3 0 C 965.73 402.14 762.61 342.86 762.61 354.74 Z" stroke-linecap="round"/>
</g>
		<g transform="matrix(1 0 0 1 -350.69 273.555)">
<ellipse style="stroke: none; stroke-width: 1; stroke-dasharray: none; stroke-linecap: butt; stroke-dashoffset: 0; stroke-linejoin: miter; stroke-miterlimit: 4; is-custom-font: none; font-file-url: none; fill: rgb(63,61,86); fill-rule: nonzero; opacity: 0.1;" cx="0" cy="0" rx="13.44" ry="17.6"/>
</g>
		<g transform="matrix(1 0 0 1 -350.6351 219.775)">
<path style="stroke: none; stroke-width: 1; stroke-dasharray: none; stroke-linecap: butt; stroke-dashoffset: 0; stroke-linejoin: miter; stroke-miterlimit: 4; is-custom-font: none; font-file-url: none; fill: rgb(63,61,86); fill-rule: nonzero; opacity: 0.1;" transform=" translate(-249.3649, -669.78)" d="M 260 648.27 a 21.23 21.23 0 0 0 2.81 -10.76 c 0 -9.72 -6 -17.6 -13.45 -17.6 s -13.44 7.88 -13.44 17.6 a 21.23 21.23 0 0 0 2.8 10.76 a 22.06 22.06 0 0 0 0 21.51 a 22.06 22.06 0 0 0 0 21.51 a 21.16 21.16 0 0 0 -2.8 10.75 c 0 9.73 6 17.61 13.44 17.61 s 13.45 -7.88 13.45 -17.61 A 21.16 21.16 0 0 0 260 691.29 a 22 22 0 0 0 0 -21.51 a 22 22 0 0 0 0 -21.51 Z" stroke-linecap="round"/>
</g>
		<g transform="matrix(1 0 0 1 -350.69 165.995)">
<ellipse style="stroke: none; stroke-width: 1; stroke-dasharray: none; stroke-linecap: butt; stroke-dashoffset: 0; stroke-linejoin: miter; stroke-miterlimit: 4; is-custom-font: none; font-file-url: none; fill: rgb(63,61,86); fill-rule: nonzero; opacity: 0.1;" cx="0" cy="0" rx="13.44" ry="17.6"/>
</g>
		<g transform="matrix(1 0 0 1 -350.69 144.485)">
<ellipse style="stroke: none; stroke-width: 1; stroke-dasharray: none; stroke-linecap: butt; stroke-dashoffset: 0; stroke-linejoin: miter; stroke-miterlimit: 4; is-custom-font: none; font-file-url: none; fill: rgb(63,61,86); fill-rule: nonzero; opacity: 0.1;" cx="0" cy="0" rx="13.44" ry="17.6"/>
</g>
		<g transform="matrix(1 0 0 1 -350.4 37.1131)">
<path style="stroke: none; stroke-width: 1; stroke-dasharray: none; stroke-linecap: butt; stroke-dashoffset: 0; stroke-linejoin: miter; stroke-miterlimit: 4; is-custom-font: none; font-file-url: none; fill: rgb(10,199,10); fill-rule: nonzero; opacity: 0.1;" transform=" translate(-249.6, -487.1181)" d="M 199 447.27 a 64.1 64.1 0 0 1 -5 -7.37 l 35.33 -5.8 l -38.21 0.29 a 64.57 64.57 0 0 1 -1.23 -51 L 241.12 410 L 193.85 375.2 a 64.4 64.4 0 1 1 106.37 72.07 A 64.33 64.33 0 0 1 307.56 459 L 261.7 482.84 l 48.9 -16.41 a 64.44 64.44 0 0 1 -10.38 60.48 a 64.4 64.4 0 1 1 -101.24 0 a 64.42 64.42 0 0 1 0 -79.64 Z" stroke-linecap="round"/>
</g>
		<g transform="matrix(1 0 0 1 -350.4 108.6268)">
<path style="stroke: none; stroke-width: 1; stroke-dasharray: none; stroke-linecap: butt; stroke-dashoffset: 0; stroke-linejoin: miter; stroke-miterlimit: 4; is-custom-font: none; font-file-url: none; fill: rgb(0,0,0); fill-rule: nonzero; opacity: 0.01;" transform=" translate(-249.6, -558.6318)" d="M 314 487.09 a 64.15 64.15 0 0 1 -13.78 39.82 a 64.4 64.4 0 1 1 -101.24 0 C 190.35 516 314 479.86 314 487.09 Z" stroke-linecap="round"/>
</g>
		<g transform="matrix(1 0 0 1 -47.69 282.925)">
<ellipse style="stroke: none; stroke-width: 1; stroke-dasharray: none; stroke-linecap: butt; stroke-dashoffset: 0; stroke-linejoin: miter; stroke-miterlimit: 4; is-custom-font: none; font-file-url: none; fill: rgb(63,61,86); fill-rule: nonzero; opacity: 0.1;" cx="0" cy="0" rx="17.99" ry="23.55"/>
</g>
		<g transform="matrix(1 0 0 1 -47.7001 210.95)">
<path style="stroke: none; stroke-width: 1; stroke-dasharray: none; stroke-linecap: butt; stroke-dashoffset: 0; stroke-linejoin: miter; stroke-miterlimit: 4; is-custom-font: none; font-file-url: none; fill: rgb(63,61,86); fill-rule: nonzero; opacity: 0.1;" transform=" translate(-552.3, -660.955)" d="M 566.55 632.17 a 28.41 28.41 0 0 0 3.75 -14.4 c 0 -13 -8 -23.55 -18 -23.55 s -18 10.55 -18 23.55 a 28.32 28.32 0 0 0 3.76 14.4 a 29.44 29.44 0 0 0 0 28.79 a 29.42 29.42 0 0 0 0 28.78 a 28.32 28.32 0 0 0 -3.76 14.4 c 0 13 8.06 23.55 18 23.55 s 18 -10.55 18 -23.55 a 28.41 28.41 0 0 0 -3.75 -14.4 a 29.48 29.48 0 0 0 0 -28.78 a 29.5 29.5 0 0 0 0 -28.79 Z" stroke-linecap="round"/>
</g>
		<g transform="matrix(1 0 0 1 -47.69 138.985)">
<ellipse style="stroke: none; stroke-width: 1; stroke-dasharray: none; stroke-linecap: butt; stroke-dashoffset: 0; stroke-linejoin: miter; stroke-miterlimit: 4; is-custom-font: none; font-file-url: none; fill: rgb(63,61,86); fill-rule: nonzero; opacity: 0.1;" cx="0" cy="0" rx="17.99" ry="23.55"/>
</g>
		<g transform="matrix(1 0 0 1 -47.69 110.195)">
<ellipse style="stroke: none; stroke-width: 1; stroke-dasharray: none; stroke-linecap: butt; stroke-dashoffset: 0; stroke-linejoin: miter; stroke-miterlimit: 4; is-custom-font: none; font-file-url: none; fill: rgb(63,61,86); fill-rule: nonzero; opacity: 0.1;" cx="0" cy="0" rx="17.99" ry="23.55"/>
</g>
		<g transform="matrix(1 0 0 1 -47.2279 -33.6387)">
<path style="stroke: none; stroke-width: 1; stroke-dasharray: none; stroke-linecap: butt; stroke-dashoffset: 0; stroke-linejoin: miter; stroke-miterlimit: 4; is-custom-font: none; font-file-url: none; fill: rgb(10,199,10); fill-rule: nonzero; opacity: 0.1;" transform=" translate(-552.7721, -416.3663)" d="M 485 363.2 a 85.91 85.91 0 0 1 -6.7 -9.86 l 47.27 -7.76 l -51.12 0.38 a 86.35 86.35 0 0 1 -1.65 -68.29 l 68.6 35.58 l -63.27 -46.5 A 86.19 86.19 0 1 1 620.44 363.2 a 86.33 86.33 0 0 1 9.82 15.72 L 568.9 410.8 l 65.43 -22 a 86.22 86.22 0 0 1 -13.89 80.93 a 86.18 86.18 0 1 1 -135.48 0 a 86.21 86.21 0 0 1 0 -106.57 Z" stroke-linecap="round"/>
</g>
		<g transform="matrix(1 0 0 1 -47.3 62.217)">
<path style="stroke: none; stroke-width: 1; stroke-dasharray: none; stroke-linecap: butt; stroke-dashoffset: 0; stroke-linejoin: miter; stroke-miterlimit: 4; is-custom-font: none; font-file-url: none; fill: rgb(0,0,0); fill-rule: nonzero; opacity: 0.01;" transform=" translate(-552.7, -512.222)" d="M 638.88 416.49 a 85.81 85.81 0 0 1 -18.44 53.28 a 86.18 86.18 0 1 1 -135.48 0 C 473.41 455.11 638.88 406.81 638.88 416.49 Z" stroke-linecap="round"/>
</g>
		<g transform="matrix(1 0 0 1 22.625 304.387)">
<path style="stroke: none; stroke-width: 1; stroke-dasharray: none; stroke-linecap: butt; stroke-dashoffset: 0; stroke-linejoin: miter; stroke-miterlimit: 4; is-custom-font: none; font-file-url: none; fill: rgb(63,61,86); fill-rule: nonzero; opacity: 1;" transform=" translate(-622.625, -754.392)" d="M 1171.5 754.36 c 0 6.87 -50.22 13.15 -133.25 18 c -15.1 0.87 -31.28 1.7 -48.44 2.48 q -22.24 1 -46.62 1.89 q -23.62 0.84 -49.05 1.56 c -53.54 1.53 -112.73 2.63 -175.61 3.18 q -22.89 0.21 -46.39 0.32 q -24.48 0.11 -49.52 0.1 c -303.14 0 -548.87 -12.31 -548.87 -27.5 s 245.73 -27.5 548.87 -27.5 c 130.51 0 250.36 2.29 344.56 6.09 l 10.3 0.42 h 0.06 C 1096.2 738.43 1171.5 746 1171.5 754.36 Z" stroke-linecap="round"/>
</g>
		<g transform="matrix(1 0 0 1 22.625 304.387)">
<path style="stroke: none; stroke-width: 1; stroke-dasharray: none; stroke-linecap: butt; stroke-dashoffset: 0; stroke-linejoin: miter; stroke-miterlimit: 4; is-custom-font: none; font-file-url: none; fill: rgb(0,0,0); fill-rule: nonzero; opacity: 0.15;" transform=" translate(-622.625, -754.392)" d="M 1171.5 754.36 c 0 6.87 -50.22 13.15 -133.25 18 c -15.1 0.87 -31.28 1.7 -48.44 2.48 q -22.24 1 -46.62 1.89 q -23.62 0.84 -49.05 1.56 c -53.54 1.53 -112.73 2.63 -175.61 3.18 q -22.89 0.21 -46.39 0.32 q -24.48 0.11 -49.52 0.1 c -303.14 0 -548.87 -12.31 -548.87 -27.5 s 245.73 -27.5 548.87 -27.5 c 130.51 0 250.36 2.29 344.56 6.09 l 10.3 0.42 h 0.06 C 1096.2 738.43 1171.5 746 1171.5 754.36 Z" stroke-linecap="round"/>
</g>
		<g transform="matrix(1 0 0 1 -22.625 299.485)">
<path style="stroke: none; stroke-width: 1; stroke-dasharray: none; stroke-linecap: butt; stroke-dashoffset: 0; stroke-linejoin: miter; stroke-miterlimit: 4; is-custom-font: none; font-file-url: none; fill: rgb(63,61,86); fill-rule: nonzero; opacity: 1;" transform=" translate(-577.375, -749.49)" d="M 1126.25 749.52 c 0 5.74 -50.22 11 -133.25 15 c -15.09 0.73 -31.28 1.42 -48.43 2.07 q -22.25 0.84 -46.62 1.58 q -23.62 0.7 -49.05 1.31 c -53.55 1.28 -112.74 2.2 -175.62 2.66 q -22.87 0.17 -46.39 0.26 q -24.48 0.09 -49.51 0.09 c -303.14 0 -548.88 -10.29 -548.88 -23 s 245.74 -23 548.88 -23 c 130.5 0 250.35 1.91 344.55 5.09 l 10.3 0.35 h 0.07 C 1051 736.2 1126.25 742.49 1126.25 749.52 Z" stroke-linecap="round"/>
</g>
		<g transform="matrix(1 0 0 1 -271.76 67.685)">
<path style="stroke: none; stroke-width: 1; stroke-dasharray: none; stroke-linecap: butt; stroke-dashoffset: 0; stroke-linejoin: miter; stroke-miterlimit: 4; is-custom-font: none; font-file-url: none; fill: rgb(63,61,86); fill-rule: nonzero; opacity: 1;" transform=" translate(-328.24, -517.69)" d="M 170.26 540.59 L 156.48 498.4 l 330 -3.61 L 500 536.56 Z" stroke-linecap="round"/>
</g>
		<g transform="matrix(1 0 0 1 -271.76 67.685)">
<path style="stroke: none; stroke-width: 1; stroke-dasharray: none; stroke-linecap: butt; stroke-dashoffset: 0; stroke-linejoin: miter; stroke-miterlimit: 4; is-custom-font: none; font-file-url: none; fill: rgb(0,0,0); fill-rule: nonzero; opacity: 0.15;" transform=" translate(-328.24, -517.69)" d="M 170.26 540.59 L 156.48 498.4 l 330 -3.61 L 500 536.56 Z" stroke-linecap="round"/>
</g>
		<g transform="matrix(1 0 0 1 -293.76 67.685)">
<path style="stroke: none; stroke-width: 1; stroke-dasharray: none; stroke-linecap: butt; stroke-dashoffset: 0; stroke-linejoin: miter; stroke-miterlimit: 4; is-custom-font: none; font-file-url: none; fill: rgb(63,61,86); fill-rule: nonzero; opacity: 1;" transform=" translate(-306.24, -517.69)" d="M 148.26 540.59 L 134.48 498.4 l 330 -3.61 L 478 536.56 Z" stroke-linecap="round"/>
</g>
		<g transform="matrix(1 0 0 1 260.045 20.4946)">
<path style="stroke: none; stroke-width: 1; stroke-dasharray: none; stroke-linecap: butt; stroke-dashoffset: 0; stroke-linejoin: miter; stroke-miterlimit: 4; is-custom-font: none; font-file-url: none; fill: rgb(63,61,86); fill-rule: nonzero; opacity: 1;" transform=" translate(-860.045, -470.4996)" d="M 711.61 475.76 q -51.18 0 -80.67 -40.63 t -29.49 -98.44 q 0 -58.2 28.52 -98.24 t 80.46 -40 q 55.08 0 83 42.19 t 27.93 97.66 q 0 55.07 -28.9 96.28 T 711.61 475.76 Z m 1 -30.47 q 33.67 0 50.33 -29.35 t 16.66 -74 q 0 -49.7 -17.05 -81.39 t -52.3 -31.7 q -67 0 -67 106.44 Q 643.25 445.3 712.59 445.29 Z m 11.24 291.79 H 674.5 l 323.08 -533.2 H 1046 Z m 285.82 5.47 q -51.95 0 -81 -41 T 899.5 603.1 q 0 -57.81 28.32 -97.85 t 80.66 -40 q 54.69 0 82.42 42.19 t 27.74 97.65 q 0 54.71 -28.71 96.1 T 1009.65 742.55 Z m 0.58 -31.25 q 33.51 0 50.06 -28.85 t 16.55 -73.7 q 0 -48 -16.75 -80.51 t -52.19 -32.56 q -67.39 0 -67.39 106.44 Q 940.51 711.31 1010.23 711.3 Z" stroke-linecap="round"/>
</g>
		<g transform="matrix(1 0 0 1 260.045 20.4946)">
<path style="stroke: none; stroke-width: 1; stroke-dasharray: none; stroke-linecap: butt; stroke-dashoffset: 0; stroke-linejoin: miter; stroke-miterlimit: 4; is-custom-font: none; font-file-url: none; fill: rgb(63,61,86); fill-rule: nonzero; opacity: 1;" transform=" translate(-860.045, -470.4996)" d="M 711.61 475.76 q -51.18 0 -80.67 -40.63 t -29.49 -98.44 q 0 -58.2 28.52 -98.24 t 80.46 -40 q 55.08 0 83 42.19 t 27.93 97.66 q 0 55.07 -28.9 96.28 T 711.61 475.76 Z m 1 -30.47 q 33.67 0 50.33 -29.35 t 16.66 -74 q 0 -49.7 -17.05 -81.39 t -52.3 -31.7 q -67 0 -67 106.44 Q 643.25 445.3 712.59 445.29 Z m 11.24 291.79 H 674.5 l 323.08 -533.2 H 1046 Z m 285.82 5.47 q -51.95 0 -81 -41 T 899.5 603.1 q 0 -57.81 28.32 -97.85 t 80.66 -40 q 54.69 0 82.42 42.19 t 27.74 97.65 q 0 54.71 -28.71 96.1 T 1009.65 742.55 Z m 0.58 -31.25 q 33.51 0 50.06 -28.85 t 16.55 -73.7 q 0 -48 -16.75 -80.51 t -52.19 -32.56 q -67.39 0 -67.39 106.44 Q 940.51 711.31 1010.23 711.3 Z" stroke-linecap="round"/>
</g>
		<g transform="matrix(1 0 0 1 260.045 20.4946)">
<path style="stroke: none; stroke-width: 1; stroke-dasharray: none; stroke-linecap: butt; stroke-dashoffset: 0; stroke-linejoin: miter; stroke-miterlimit: 4; is-custom-font: none; font-file-url: none; fill: rgb(0,0,0); fill-rule: nonzero; opacity: 0.15;" transform=" translate(-860.045, -470.4996)" d="M 711.61 475.76 q -51.18 0 -80.67 -40.63 t -29.49 -98.44 q 0 -58.2 28.52 -98.24 t 80.46 -40 q 55.08 0 83 42.19 t 27.93 97.66 q 0 55.07 -28.9 96.28 T 711.61 475.76 Z m 1 -30.47 q 33.67 0 50.33 -29.35 t 16.66 -74 q 0 -49.7 -17.05 -81.39 t -52.3 -31.7 q -67 0 -67 106.44 Q 643.25 445.3 712.59 445.29 Z m 11.24 291.79 H 674.5 l 323.08 -533.2 H 1046 Z m 285.82 5.47 q -51.95 0 -81 -41 T 899.5 603.1 q 0 -57.81 28.32 -97.85 t 80.66 -40 q 54.69 0 82.42 42.19 t 27.74 97.65 q 0 54.71 -28.71 96.1 T 1009.65 742.55 Z m 0.58 -31.25 q 33.51 0 50.06 -28.85 t 16.55 -73.7 q 0 -48 -16.75 -80.51 t -52.19 -32.56 q -67.39 0 -67.39 106.44 Q 940.51 711.31 1010.23 711.3 Z" stroke-linecap="round"/>
</g>
		<g transform="matrix(1 0 0 1 229.045 20.4946)">
<path style="stroke: none; stroke-width: 1; stroke-dasharray: none; stroke-linecap: butt; stroke-dashoffset: 0; stroke-linejoin: miter; stroke-miterlimit: 4; is-custom-font: none; font-file-url: none; fill: rgb(63,61,86); fill-rule: nonzero; opacity: 1;" transform=" translate(-829.045, -470.4996)" d="M 680.61 475.76 q -51.18 0 -80.67 -40.63 t -29.49 -98.44 q 0 -58.2 28.52 -98.24 t 80.46 -40 q 55.08 0 83 42.19 t 27.93 97.66 q 0 55.07 -28.9 96.28 T 680.61 475.76 Z m 1 -30.47 q 33.67 0 50.33 -29.35 t 16.66 -74 q 0 -49.7 -17.05 -81.39 t -52.3 -31.7 q -67 0 -67 106.44 Q 612.25 445.3 681.59 445.29 Z m 11.24 291.79 H 643.5 l 323.08 -533.2 H 1015 Z m 285.82 5.47 q -51.95 0 -81 -41 T 868.5 603.1 q 0 -57.81 28.32 -97.85 t 80.66 -40 q 54.69 0 82.42 42.19 t 27.74 97.65 q 0 54.71 -28.71 96.1 T 978.65 742.55 Z m 0.58 -31.25 q 33.51 0 50.06 -28.85 t 16.55 -73.7 q 0 -48 -16.75 -80.51 T 976.9 495.68 q -67.39 0 -67.39 106.44 Q 909.51 711.31 979.23 711.3 Z" stroke-linecap="round"/>
</g>
		<g transform="matrix(1 0 0 1 197.9582 216.345)">
<path style="stroke: rgb(63,61,86); stroke-width: 4; stroke-dasharray: none; stroke-linecap: butt; stroke-dashoffset: 0; stroke-linejoin: miter; stroke-miterlimit: 10; is-custom-font: none; font-file-url: none; fill: none; fill-rule: nonzero; opacity: 1;" transform=" translate(-797.9582, -666.35)" d="M 788.57 750.46 c 4.12 -7.64 -0.56 -17 -5.94 -23.82 s -11.94 -13.9 -11.8 -22.59 c 0.2 -12.47 13.44 -19.84 24 -26.46 a 117.08 117.08 0 0 0 21.58 -17.34 a 31.68 31.68 0 0 0 6.63 -8.88 c 2.19 -4.88 2.12 -10.43 2 -15.77 q -0.69 -26.72 -2.64 -53.36" stroke-linecap="round"/>
</g>
		<g transform="matrix(1 0 0 1 223.0812 132.1644)">
<path style="stroke: none; stroke-width: 1; stroke-dasharray: none; stroke-linecap: butt; stroke-dashoffset: 0; stroke-linejoin: miter; stroke-miterlimit: 4; is-custom-font: none; font-file-url: none; fill: rgb(10,199,10); fill-rule: nonzero; opacity: 1;" transform=" translate(-823.0812, -582.1695)" d="M 842.52 581.26 a 19.43 19.43 0 0 0 -9.71 -15.94 l -4.36 8.62 l 0.13 -10.44 a 19.69 19.69 0 0 0 -6.41 -0.77 a 19.46 19.46 0 1 0 20.35 18.53 Z" stroke-linecap="round"/>
</g>
		<g transform="matrix(1 0 0 1 190.5379 254.0948)">
<path style="stroke: none; stroke-width: 1; stroke-dasharray: none; stroke-linecap: butt; stroke-dashoffset: 0; stroke-linejoin: miter; stroke-miterlimit: 4; is-custom-font: none; font-file-url: none; fill: rgb(10,199,10); fill-rule: nonzero; opacity: 1;" transform=" translate(-790.5378, -704.0998)" d="M 807.82 713 a 19.45 19.45 0 1 1 0.94 -15.67 l -12.16 9.89 L 810 704.1 A 19.4 19.4 0 0 1 807.82 713 Z" stroke-linecap="round"/>
</g>
		<g transform="matrix(1 0 0 1 197.254 205.7298)">
<path style="stroke: none; stroke-width: 1; stroke-dasharray: none; stroke-linecap: butt; stroke-dashoffset: 0; stroke-linejoin: miter; stroke-miterlimit: 4; is-custom-font: none; font-file-url: none; fill: rgb(10,199,10); fill-rule: nonzero; opacity: 1;" transform=" translate(-797.254, -655.7348)" d="M 798.21 675.19 a 19.46 19.46 0 0 1 -20.35 -18.53 a 19.24 19.24 0 0 1 1.68 -8.87 A 19.49 19.49 0 0 1 792 637 l -0.11 8 l 4.41 -8.72 h 0 a 19.46 19.46 0 1 1 1.82 38.88 Z" stroke-linecap="round"/>
</g>
		<g transform="matrix(1 0 0 1 244.3564 174.3201)">
<path style="stroke: none; stroke-width: 1; stroke-dasharray: none; stroke-linecap: butt; stroke-dashoffset: 0; stroke-linejoin: miter; stroke-miterlimit: 4; is-custom-font: none; font-file-url: none; fill: rgb(10,199,10); fill-rule: nonzero; opacity: 1;" transform=" translate(-844.3564, -624.325)" d="M 845.45 643.76 a 19.47 19.47 0 1 1 -1.82 -38.89 a 19.28 19.28 0 0 1 10.42 2.47 l -3.44 9.42 l 7.08 -6.79 A 19.4 19.4 0 0 1 864 623.4 a 19 19 0 0 1 -0.5 5.36 A 19.47 19.47 0 0 1 845.45 643.76 Z" stroke-linecap="round"/>
</g>
		<g transform="matrix(1 0 0 1 222.8703 137.4913)">
<path style="stroke: none; stroke-width: 1; stroke-dasharray: none; stroke-linecap: butt; stroke-dashoffset: 0; stroke-linejoin: miter; stroke-miterlimit: 4; is-custom-font: none; font-file-url: none; fill: rgb(0,0,0); fill-rule: nonzero; opacity: 0.1;" transform=" translate(-822.8703, -587.4963)" d="M 839.9 586.45 c -4.49 0.49 -8.85 1.89 -13.36 2.17 s -9.46 -0.8 -12.31 -4.31 c -1.54 -1.88 -2.3 -4.27 -3.6 -6.33 a 13.79 13.79 0 0 0 -4.9 -4.61 a 19.46 19.46 0 1 0 36.38 12.91 C 841.37 586.32 840.64 586.37 839.9 586.45 Z" stroke-linecap="round"/>
</g>
		<g transform="matrix(1 0 0 1 244.3015 179.8851)">
<path style="stroke: none; stroke-width: 1; stroke-dasharray: none; stroke-linecap: butt; stroke-dashoffset: 0; stroke-linejoin: miter; stroke-miterlimit: 4; is-custom-font: none; font-file-url: none; fill: rgb(0,0,0); fill-rule: nonzero; opacity: 0.1;" transform=" translate(-844.3016, -629.8901)" d="M 845.45 643.76 A 19.48 19.48 0 0 1 826.94 616 a 14.58 14.58 0 0 1 3.91 3.92 c 1.39 2.09 2.23 4.51 3.86 6.43 c 3 3.57 8.21 4.73 12.9 4.52 s 9.23 -1.55 13.91 -2 c 0.65 -0.06 1.31 -0.1 2 -0.12 A 19.47 19.47 0 0 1 845.45 643.76 Z" stroke-linecap="round"/>
</g>
		<g transform="matrix(1 0 0 1 196.8681 211.4957)">
<path style="stroke: none; stroke-width: 1; stroke-dasharray: none; stroke-linecap: butt; stroke-dashoffset: 0; stroke-linejoin: miter; stroke-miterlimit: 4; is-custom-font: none; font-file-url: none; fill: rgb(0,0,0); fill-rule: nonzero; opacity: 0.1;" transform=" translate(-796.8682, -661.5007)" d="M 798.21 675.19 a 19.46 19.46 0 0 1 -20.35 -18.53 a 19.24 19.24 0 0 1 1.68 -8.87 a 15.66 15.66 0 0 1 4.11 4 c 1.51 2.13 2.46 4.59 4.23 6.56 c 3.28 3.65 8.8 4.94 13.77 4.82 s 9.46 -1.28 14.25 -1.65 A 19.47 19.47 0 0 1 798.21 675.19 Z" stroke-linecap="round"/>
</g>
		<g transform="matrix(1 0 0 1 189.4159 260.3744)">
<path style="stroke: none; stroke-width: 1; stroke-dasharray: none; stroke-linecap: butt; stroke-dashoffset: 0; stroke-linejoin: miter; stroke-miterlimit: 4; is-custom-font: none; font-file-url: none; fill: rgb(0,0,0); fill-rule: nonzero; opacity: 0.1;" transform=" translate(-789.416, -710.3794)" d="M 807.82 713 a 19.46 19.46 0 0 1 -35.48 -15.88 a 19.6 19.6 0 0 1 4.27 3.81 c 1.85 2.26 3.07 4.82 5.21 6.92 c 4 3.9 10.4 5.51 16.12 5.66 A 82.85 82.85 0 0 0 807.82 713 Z" stroke-linecap="round"/>
</g>
		<g transform="matrix(1 0 0 1 498.9582 215.345)">
<path style="stroke: rgb(63,61,86); stroke-width: 4; stroke-dasharray: none; stroke-linecap: butt; stroke-dashoffset: 0; stroke-linejoin: miter; stroke-miterlimit: 10; is-custom-font: none; font-file-url: none; fill: none; fill-rule: nonzero; opacity: 1;" transform=" translate(-1098.9582, -665.35)" d="M 1089.57 749.46 c 4.12 -7.64 -0.56 -17 -5.94 -23.82 s -11.94 -13.9 -11.8 -22.59 c 0.2 -12.47 13.44 -19.84 24 -26.46 a 117.08 117.08 0 0 0 21.58 -17.34 a 31.68 31.68 0 0 0 6.63 -8.88 c 2.19 -4.88 2.12 -10.43 2 -15.77 q -0.69 -26.72 -2.64 -53.36" stroke-linecap="round"/>
</g>
		<g transform="matrix(1 0 0 1 524.0812 131.1644)">
<path style="stroke: none; stroke-width: 1; stroke-dasharray: none; stroke-linecap: butt; stroke-dashoffset: 0; stroke-linejoin: miter; stroke-miterlimit: 4; is-custom-font: none; font-file-url: none; fill: rgb(10,199,10); fill-rule: nonzero; opacity: 1;" transform=" translate(-1124.0812, -581.1695)" d="M 1143.52 580.26 a 19.43 19.43 0 0 0 -9.71 -15.94 l -4.36 8.62 l 0.13 -10.44 a 19.69 19.69 0 0 0 -6.41 -0.77 a 19.46 19.46 0 1 0 20.35 18.53 Z" stroke-linecap="round"/>
</g>
		<g transform="matrix(1 0 0 1 491.5379 253.0948)">
<path style="stroke: none; stroke-width: 1; stroke-dasharray: none; stroke-linecap: butt; stroke-dashoffset: 0; stroke-linejoin: miter; stroke-miterlimit: 4; is-custom-font: none; font-file-url: none; fill: rgb(10,199,10); fill-rule: nonzero; opacity: 1;" transform=" translate(-1091.5378, -703.0998)" d="M 1108.82 712 a 19.45 19.45 0 1 1 0.94 -15.67 l -12.16 9.89 L 1111 703.1 A 19.4 19.4 0 0 1 1108.82 712 Z" stroke-linecap="round"/>
</g>
		<g transform="matrix(1 0 0 1 498.279 204.7298)">
<path style="stroke: none; stroke-width: 1; stroke-dasharray: none; stroke-linecap: butt; stroke-dashoffset: 0; stroke-linejoin: miter; stroke-miterlimit: 4; is-custom-font: none; font-file-url: none; fill: rgb(10,199,10); fill-rule: nonzero; opacity: 1;" transform=" translate(-1098.279, -654.7348)" d="M 1099.21 674.19 a 19.46 19.46 0 0 1 -20.35 -18.53 a 19.24 19.24 0 0 1 1.68 -8.87 A 19.49 19.49 0 0 1 1093 636 l -0.11 8 l 4.41 -8.72 h 0.05 a 19.46 19.46 0 1 1 1.82 38.88 Z" stroke-linecap="round"/>
</g>
		<g transform="matrix(1 0 0 1 545.3564 173.3201)">
<path style="stroke: none; stroke-width: 1; stroke-dasharray: none; stroke-linecap: butt; stroke-dashoffset: 0; stroke-linejoin: miter; stroke-miterlimit: 4; is-custom-font: none; font-file-url: none; fill: rgb(10,199,10); fill-rule: nonzero; opacity: 1;" transform=" translate(-1145.3564, -623.325)" d="M 1146.45 642.76 a 19.47 19.47 0 1 1 -1.82 -38.89 a 19.28 19.28 0 0 1 10.42 2.47 l -3.44 9.42 l 7.08 -6.79 A 19.4 19.4 0 0 1 1165 622.4 a 19 19 0 0 1 -0.5 5.36 A 19.47 19.47 0 0 1 1146.45 642.76 Z" stroke-linecap="round"/>
</g>
		<g transform="matrix(1 0 0 1 523.8703 136.4913)">
<path style="stroke: none; stroke-width: 1; stroke-dasharray: none; stroke-linecap: butt; stroke-dashoffset: 0; stroke-linejoin: miter; stroke-miterlimit: 4; is-custom-font: none; font-file-url: none; fill: rgb(0,0,0); fill-rule: nonzero; opacity: 0.1;" transform=" translate(-1123.8703, -586.4963)" d="M 1140.9 585.45 c -4.49 0.49 -8.85 1.89 -13.36 2.17 s -9.46 -0.8 -12.31 -4.31 c -1.54 -1.88 -2.3 -4.27 -3.6 -6.33 a 13.79 13.79 0 0 0 -4.9 -4.61 a 19.46 19.46 0 1 0 36.38 12.91 C 1142.37 585.32 1141.64 585.37 1140.9 585.45 Z" stroke-linecap="round"/>
</g>
		<g transform="matrix(1 0 0 1 545.3015 178.8851)">
<path style="stroke: none; stroke-width: 1; stroke-dasharray: none; stroke-linecap: butt; stroke-dashoffset: 0; stroke-linejoin: miter; stroke-miterlimit: 4; is-custom-font: none; font-file-url: none; fill: rgb(0,0,0); fill-rule: nonzero; opacity: 0.1;" transform=" translate(-1145.3016, -628.8901)" d="M 1146.45 642.76 A 19.48 19.48 0 0 1 1127.94 615 a 14.58 14.58 0 0 1 3.91 3.92 c 1.39 2.09 2.23 4.51 3.86 6.43 c 3 3.57 8.21 4.73 12.9 4.52 s 9.23 -1.55 13.91 -2 c 0.65 -0.06 1.31 -0.1 2 -0.12 A 19.47 19.47 0 0 1 1146.45 642.76 Z" stroke-linecap="round"/>
</g>
		<g transform="matrix(1 0 0 1 497.8681 210.4957)">
<path style="stroke: none; stroke-width: 1; stroke-dasharray: none; stroke-linecap: butt; stroke-dashoffset: 0; stroke-linejoin: miter; stroke-miterlimit: 4; is-custom-font: none; font-file-url: none; fill: rgb(0,0,0); fill-rule: nonzero; opacity: 0.1;" transform=" translate(-1097.8682, -660.5007)" d="M 1099.21 674.19 a 19.46 19.46 0 0 1 -20.35 -18.53 a 19.24 19.24 0 0 1 1.68 -8.87 a 15.66 15.66 0 0 1 4.11 4 c 1.51 2.13 2.46 4.59 4.23 6.56 c 3.28 3.65 8.8 4.94 13.77 4.82 c 4.82 -0.1 9.46 -1.28 14.25 -1.65 A 19.47 19.47 0 0 1 1099.21 674.19 Z" stroke-linecap="round"/>
</g>
		<g transform="matrix(1 0 0 1 490.4159 259.3744)">
<path style="stroke: none; stroke-width: 1; stroke-dasharray: none; stroke-linecap: butt; stroke-dashoffset: 0; stroke-linejoin: miter; stroke-miterlimit: 4; is-custom-font: none; font-file-url: none; fill: rgb(0,0,0); fill-rule: nonzero; opacity: 0.1;" transform=" translate(-1090.416, -709.3794)" d="M 1108.82 712 a 19.46 19.46 0 0 1 -35.48 -15.88 a 19.6 19.6 0 0 1 4.27 3.81 c 1.85 2.26 3.07 4.82 5.21 6.92 c 4 3.9 10.4 5.51 16.12 5.66 A 82.85 82.85 0 0 0 1108.82 712 Z" stroke-linecap="round"/>
</g>
		<g transform="matrix(1 0 0 1 -470.9581 202.345)">
<path style="stroke: rgb(63,61,86); stroke-width: 4; stroke-dasharray: none; stroke-linecap: butt; stroke-dashoffset: 0; stroke-linejoin: miter; stroke-miterlimit: 10; is-custom-font: none; font-file-url: none; fill: none; fill-rule: nonzero; opacity: 1;" transform=" translate(-129.0418, -652.35)" d="M 138.43 736.46 c -4.12 -7.64 0.56 -17 5.94 -23.82 s 11.94 -13.9 11.8 -22.59 c -0.2 -12.47 -13.44 -19.84 -24 -26.46 a 117.08 117.08 0 0 1 -21.58 -17.34 a 31.68 31.68 0 0 1 -6.63 -8.88 c -2.19 -4.88 -2.12 -10.43 -2 -15.77 q 0.69 -26.72 2.64 -53.36" stroke-linecap="round"/>
</g>
		<g transform="matrix(1 0 0 1 -496.0812 118.1644)">
<path style="stroke: none; stroke-width: 1; stroke-dasharray: none; stroke-linecap: butt; stroke-dashoffset: 0; stroke-linejoin: miter; stroke-miterlimit: 4; is-custom-font: none; font-file-url: none; fill: rgb(10,199,10); fill-rule: nonzero; opacity: 1;" transform=" translate(-103.9188, -568.1695)" d="M 84.48 567.26 a 19.43 19.43 0 0 1 9.71 -15.94 l 4.36 8.62 l -0.13 -10.44 a 19.69 19.69 0 0 1 6.41 -0.77 a 19.46 19.46 0 1 1 -20.35 18.53 Z" stroke-linecap="round"/>
</g>
		<g transform="matrix(1 0 0 1 -463.5378 240.0948)">
<path style="stroke: none; stroke-width: 1; stroke-dasharray: none; stroke-linecap: butt; stroke-dashoffset: 0; stroke-linejoin: miter; stroke-miterlimit: 4; is-custom-font: none; font-file-url: none; fill: rgb(10,199,10); fill-rule: nonzero; opacity: 1;" transform=" translate(-136.4622, -690.0998)" d="M 119.18 699 a 19.45 19.45 0 1 0 -0.94 -15.67 l 12.16 9.89 L 117 690.1 A 19.4 19.4 0 0 0 119.18 699 Z" stroke-linecap="round"/>
</g>
		<g transform="matrix(1 0 0 1 -470.254 191.7298)">
<path style="stroke: none; stroke-width: 1; stroke-dasharray: none; stroke-linecap: butt; stroke-dashoffset: 0; stroke-linejoin: miter; stroke-miterlimit: 4; is-custom-font: none; font-file-url: none; fill: rgb(10,199,10); fill-rule: nonzero; opacity: 1;" transform=" translate(-129.746, -641.7348)" d="M 128.79 661.19 a 19.46 19.46 0 0 0 20.35 -18.53 a 19.24 19.24 0 0 0 -1.68 -8.87 A 19.49 19.49 0 0 0 135 623 l 0.11 8 l -4.41 -8.72 h 0 a 19.46 19.46 0 1 0 -1.82 38.88 Z" stroke-linecap="round"/>
</g>
		<g transform="matrix(1 0 0 1 -517.3564 160.3212)">
<path style="stroke: none; stroke-width: 1; stroke-dasharray: none; stroke-linecap: butt; stroke-dashoffset: 0; stroke-linejoin: miter; stroke-miterlimit: 4; is-custom-font: none; font-file-url: none; fill: rgb(10,199,10); fill-rule: nonzero; opacity: 1;" transform=" translate(-82.6436, -610.3261)" d="M 81.55 629.76 a 19.47 19.47 0 1 0 1.82 -38.89 A 19.28 19.28 0 0 0 73 593.34 l 3.44 9.42 L 69.31 596 A 19.4 19.4 0 0 0 63 609.4 a 19 19 0 0 0 0.5 5.36 A 19.47 19.47 0 0 0 81.55 629.76 Z" stroke-linecap="round"/>
</g>
		<g transform="matrix(1 0 0 1 -495.8703 123.4913)">
<path style="stroke: none; stroke-width: 1; stroke-dasharray: none; stroke-linecap: butt; stroke-dashoffset: 0; stroke-linejoin: miter; stroke-miterlimit: 4; is-custom-font: none; font-file-url: none; fill: rgb(0,0,0); fill-rule: nonzero; opacity: 0.1;" transform=" translate(-104.1297, -573.4963)" d="M 87.1 572.45 c 4.49 0.49 8.85 1.89 13.36 2.17 s 9.46 -0.8 12.31 -4.31 c 1.54 -1.88 2.3 -4.27 3.6 -6.33 a 13.79 13.79 0 0 1 4.9 -4.61 a 19.46 19.46 0 1 1 -36.38 12.91 C 85.63 572.32 86.36 572.37 87.1 572.45 Z" stroke-linecap="round"/>
</g>
		<g transform="matrix(1 0 0 1 -517.3016 165.8851)">
<path style="stroke: none; stroke-width: 1; stroke-dasharray: none; stroke-linecap: butt; stroke-dashoffset: 0; stroke-linejoin: miter; stroke-miterlimit: 4; is-custom-font: none; font-file-url: none; fill: rgb(0,0,0); fill-rule: nonzero; opacity: 0.1;" transform=" translate(-82.6984, -615.8901)" d="M 81.55 629.76 A 19.48 19.48 0 0 0 100.06 602 a 14.58 14.58 0 0 0 -3.91 3.92 c -1.39 2.09 -2.23 4.51 -3.86 6.43 c -3 3.57 -8.21 4.73 -12.9 4.52 s -9.23 -1.55 -13.91 -2 c -0.65 -0.06 -1.31 -0.1 -2 -0.12 A 19.47 19.47 0 0 0 81.55 629.76 Z" stroke-linecap="round"/>
</g>
		<g transform="matrix(1 0 0 1 -469.8682 197.4957)">
<path style="stroke: none; stroke-width: 1; stroke-dasharray: none; stroke-linecap: butt; stroke-dashoffset: 0; stroke-linejoin: miter; stroke-miterlimit: 4; is-custom-font: none; font-file-url: none; fill: rgb(0,0,0); fill-rule: nonzero; opacity: 0.1;" transform=" translate(-130.1318, -647.5007)" d="M 128.79 661.19 a 19.46 19.46 0 0 0 20.35 -18.53 a 19.24 19.24 0 0 0 -1.68 -8.87 a 15.66 15.66 0 0 0 -4.11 4 c -1.51 2.13 -2.46 4.59 -4.23 6.56 c -3.28 3.65 -8.8 4.94 -13.77 4.82 c -4.82 -0.1 -9.46 -1.28 -14.25 -1.65 A 19.47 19.47 0 0 0 128.79 661.19 Z" stroke-linecap="round"/>
</g>
		<g transform="matrix(1 0 0 1 -462.416 246.3744)">
<path style="stroke: none; stroke-width: 1; stroke-dasharray: none; stroke-linecap: butt; stroke-dashoffset: 0; stroke-linejoin: miter; stroke-miterlimit: 4; is-custom-font: none; font-file-url: none; fill: rgb(0,0,0); fill-rule: nonzero; opacity: 0.1;" transform=" translate(-137.584, -696.3794)" d="M 119.18 699 a 19.46 19.46 0 0 0 35.48 -15.88 a 19.6 19.6 0 0 0 -4.27 3.81 c -1.85 2.26 -3.07 4.82 -5.21 6.92 c -4 3.9 -10.4 5.51 -16.12 5.66 A 82.85 82.85 0 0 1 119.18 699 Z" stroke-linecap="round"/>
</g>
		<g transform="matrix(1 0 0 1 -4.0166 228.0379)">
<linearGradient id="SVGID_2" gradientUnits="userSpaceOnUse" gradientTransform="matrix(1 0 0 1 0 0)" x1="596" y1="757.78" x2="596" y2="598.14">
<stop offset="0%" style="stop-color:rgb(128,128,128);stop-opacity: 0.25"/>
<stop offset="54%" style="stop-color:rgb(128,128,128);stop-opacity: 0.12"/>
<stop offset="100%" style="stop-color:rgb(128,128,128);stop-opacity: 0.1"/>
</linearGradient>
<path style="stroke: none; stroke-width: 1; stroke-dasharray: none; stroke-linecap: butt; stroke-dashoffset: 0; stroke-linejoin: miter; stroke-miterlimit: 4; is-custom-font: none; font-file-url: none; fill: url(#SVGID_2); fill-rule: nonzero; opacity: 1;" transform=" translate(-595.9834, -678.0429)" d="M 702 642.75 a 15.53 15.53 0 0 0 -6.18 -12.52 c -0.24 -9.17 -6.78 -16.66 -15.19 -17.82 a 18.13 18.13 0 0 0 -12.08 -13.52 h 0 a 15.34 15.34 0 0 0 -2.25 -0.53 l -0.22 0 l -0.39 -0.05 l -0.33 0 l -0.33 0 l -0.43 0 l -0.26 0 h -0.71 c -8.58 0 -15.72 6.56 -17.19 15.21 c -5.55 -1.28 -10.64 0.38 -11.55 3.89 a 4.75 4.75 0 0 0 0.15 2.81 c 0.94 2.72 4 5.32 8.15 6.61 l 0.54 0.16 c 0.27 0.08 0.54 0.14 0.81 0.2 l 0.18 0 h 0 a 14 14 0 0 0 6.11 18.31 a 3.17 3.17 0 0 0 -0.36 0.23 a 5 5 0 0 0 -1.2 1.68 a 24.36 24.36 0 0 0 -2.32 5.59 c -0.4 1.67 -0.47 3.42 -1 5.07 c -0.91 3 -3.25 5.63 -3.52 8.82 c -0.12 1.42 0.11 3.09 -0.9 4.06 a 6.6 6.6 0 0 1 -0.8 0.59 a 6.18 6.18 0 0 0 -1.76 1.84 A 5.88 5.88 0 0 1 637.8 675 c -0.91 0.69 -2.41 0.62 -2.86 1.68 s 0.71 2.31 0.44 3.47 c -0.22 0.94 -1.25 1.37 -2 2 a 7.09 7.09 0 0 0 -1.7 3.23 a 10.34 10.34 0 0 1 -8.53 -2.17 a 16 16 0 0 1 0.88 3.19 c -1.19 -1.27 -3.15 -1.64 -4.6 -2.3 a 14.69 14.69 0 0 1 -4.9 -3.64 l 2.62 -0.36 L 605.55 662.5 l -3.42 -0.7 l 3.07 5.89 a 1.84 1.84 0 0 0 -1 1.26 a 5.36 5.36 0 0 0 -0.12 2 a 37 37 0 0 0 0.79 4.69 l 0.89 4.14 a 10.74 10.74 0 0 0 0.29 1.15 a 11.66 11.66 0 0 0 -3.44 0.39 a 30.22 30.22 0 0 0 -7.13 -1.69 a 3.64 3.64 0 0 0 -1.61 0.08 a 3.9 3.9 0 0 0 -1.5 1.22 a 48 48 0 0 0 -5.3 7.46 c -6.23 10.84 -14.55 20.3 -22.34 30.1 c -5.38 2.19 -10.8 4.27 -16.23 6.33 l -11.67 4.45 c -2.33 0.89 -4.75 1.8 -7.23 1.64 c -1.12 -0.07 -2.48 -0.24 -3.11 0.71 a 6 6 0 0 0 -0.71 1.52 c -0.41 0 -0.82 0.1 -1.2 0.12 h -0.07 c -0.74 -1.84 -1.38 -3.81 -2.8 -5.15 a 1.74 1.74 0 0 0 -1.32 1 c -0.28 0.52 -0.45 1.09 -0.77 1.57 c -0.63 0.92 -1.72 1.37 -2.5 2.15 s -1.27 2 -2.11 2.76 a 8.38 8.38 0 0 1 -4 1.55 a 25.25 25.25 0 0 0 -6.21 2.36 a 10.63 10.63 0 0 1 -2.3 1.06 a 8.66 8.66 0 0 1 -2.69 0.09 l -6.18 -0.45 a 4.81 4.81 0 0 0 -1.65 0.07 a 3.07 3.07 0 0 0 -2 3.17 a 4.93 4.93 0 0 0 1.95 3.4 a 13 13 0 0 0 3.52 1.83 A 102.22 102.22 0 0 0 512 753.52 v 1.25 a 28.07 28.07 0 0 0 12.61 3 a 1.88 1.88 0 0 0 0.94 -0.17 a 2.09 2.09 0 0 0 0.79 -1.24 a 51 51 0 0 0 2.47 -12.11 h 0 a 6.23 6.23 0 0 0 2.23 -0.57 c 2.13 -0.58 4.24 0.88 6.43 1.12 c 2.7 0.29 5.21 -1.28 7.76 -2.25 c 0.37 -0.14 0.74 -0.26 1.11 -0.38 a 12.43 12.43 0 0 1 -2.55 2.47 c -1.06 0.76 -2.25 1.32 -3.29 2.11 a 21.87 21.87 0 0 1 -2.77 2.15 a 16.7 16.7 0 0 1 -2.13 0.82 a 14.44 14.44 0 0 0 -3 1.51 a 6.24 6.24 0 0 0 -2.08 2 a 2.73 2.73 0 0 0 1.86 4.26 a 8.58 8.58 0 0 0 2.53 0.07 c 3.34 -0.25 6.67 -0.56 10 -0.86 a 28 28 0 0 0 4.19 -0.6 c 0.73 -0.18 1.45 -0.42 2.18 -0.61 a 17.64 17.64 0 0 1 3.81 -0.57 a 3.16 3.16 0 0 1 1.11 0.11 c 0.78 0.25 1.33 1 2.12 1.2 a 3.27 3.27 0 0 0 1.51 -0.21 a 34.69 34.69 0 0 1 7.42 -0.79 c 1.09 -0.06 2.37 -0.27 2.88 -1.28 c 0.62 -1.25 -0.42 -2.65 -0.83 -4 a 12.06 12.06 0 0 1 -0.34 -2.62 a 16.34 16.34 0 0 0 -1.84 -6.23 a 16.87 16.87 0 0 1 -1.37 -2.84 a 72.27 72.27 0 0 0 13.64 -6.92 c 2.46 -1.53 5 -3.18 7.78 -3.74 c 3.24 -0.65 6.58 0.21 9.77 1.13 a 219.71 219.71 0 0 1 22.39 7.81 c 3.5 1.43 7 2.95 10.58 4 a 16.47 16.47 0 0 0 3.75 3.66 c 2.4 1.55 5.33 2 8.15 2.22 a 107 107 0 0 0 11.46 0.43 c 2.92 -0.05 5.93 -0.25 8.54 -1.58 a 9.89 9.89 0 0 0 1.79 -1.18 c 2 0.36 4.05 -0.71 5.62 -2.08 a 13.6 13.6 0 0 0 4.3 -6.75 c 0.92 -3.61 0.21 -7.82 2.43 -10.77 c 0.59 -0.79 1.36 -1.43 1.94 -2.23 a 6 6 0 0 0 1 -3.63 l 0.1 -0.15 a 13.48 13.48 0 0 0 1 -3.64 a 20.83 20.83 0 0 1 1 -2.87 a 86.68 86.68 0 0 0 2.94 -8.53 a 46.82 46.82 0 0 0 1.36 -5.85 c 0.24 -1.58 0.38 -3.17 0.51 -4.76 a 28.71 28.71 0 0 1 1.44 -7.31 a 59.72 59.72 0 0 0 3.31 -17.52 c 0 -0.12 0 -0.23 0 -0.35 A 11.73 11.73 0 0 0 701 655.81 a 12.54 12.54 0 0 0 -1.08 -5.11 A 15.86 15.86 0 0 0 702 642.75 Z m -56.55 68.71 c 0.17 0.61 0.37 1.22 0.57 1.83 c -0.92 -0.91 -1.83 -1.85 -2.76 -2.75 c 0.37 0.11 0.74 0.23 1.1 0.36 A 6.6 6.6 0 0 1 645.46 711.46 Z m -4.48 -3 c -5.46 -4.74 -11.78 -8.42 -17.37 -13 c 3 1.51 6 3.26 9 4.94 q 5.24 3 10.6 5.74 A 8.62 8.62 0 0 1 641 708.42 Z m 2.33 -11.94 l 0.26 -0.27 c 0 0.67 0 1.3 0 1.87 c -0.49 -0.16 -1 -0.32 -1.47 -0.5 A 12.4 12.4 0 0 0 643.31 696.48 Z m -48.07 12.84 a 45.32 45.32 0 0 0 5.83 -8.31 c 2.16 3.79 5.68 6.52 8.68 9.69 C 604.92 710.06 600.09 709.53 595.24 709.32 Z" stroke-linecap="round"/>
</g>
		<g transform="matrix(1 0 0 1 10.63 222.635)">
<polygon style="stroke: none; stroke-width: 1; stroke-dasharray: none; stroke-linecap: butt; stroke-dashoffset: 0; stroke-linejoin: miter; stroke-miterlimit: 4; is-custom-font: none; font-file-url: none; fill: rgb(47,46,65); fill-rule: nonzero; opacity: 1;" points="-7.6,-9.38 -4.15,-8.68 7.6,8.68 2.41,9.38 -7.6,-9.38 "/>
</g>
		<g transform="matrix(1 0 0 1 -73.075 288.087)">
<path style="stroke: none; stroke-width: 1; stroke-dasharray: none; stroke-linecap: butt; stroke-dashoffset: 0; stroke-linejoin: miter; stroke-miterlimit: 4; is-custom-font: none; font-file-url: none; fill: rgb(251,190,190); fill-rule: nonzero; opacity: 1;" transform=" translate(-526.925, -738.0919)" d="M 519.48 733.72 a 68.35 68.35 0 0 0 3.43 9 a 83.16 83.16 0 0 0 11.46 -3.27 a 31.22 31.22 0 0 0 -2.38 -3.23 a 11.23 11.23 0 0 0 -3.24 -2.49 c -1.19 -0.52 -2.66 -0.13 -3.93 -0.06 Q 522.15 733.77 519.48 733.72 Z" stroke-linecap="round"/>
</g>
		<g transform="matrix(1 0 0 1 -90.3225 293.1689)">
<path style="stroke: none; stroke-width: 1; stroke-dasharray: none; stroke-linecap: butt; stroke-dashoffset: 0; stroke-linejoin: miter; stroke-miterlimit: 4; is-custom-font: none; font-file-url: none; fill: rgb(47,46,65); fill-rule: nonzero; opacity: 1;" transform=" translate(-509.6775, -743.1739)" d="M 528.77 738.36 c -1.94 -0.61 -3.13 -2.57 -3.92 -4.46 s -1.43 -3.95 -2.93 -5.34 a 1.75 1.75 0 0 0 -1.32 1 c -0.29 0.5 -0.46 1.07 -0.79 1.55 c -0.62 0.9 -1.72 1.34 -2.51 2.11 s -1.28 1.94 -2.13 2.71 a 8.47 8.47 0 0 1 -4 1.54 a 25.35 25.35 0 0 0 -6.26 2.32 a 10.7 10.7 0 0 1 -2.32 1 a 8.79 8.79 0 0 1 -2.71 0.09 l -6.23 -0.45 a 4.86 4.86 0 0 0 -1.66 0.08 a 3 3 0 0 0 -2 3.12 a 4.84 4.84 0 0 0 2 3.35 a 13.28 13.28 0 0 0 3.54 1.8 a 106.73 106.73 0 0 0 16.7 4.77 v 1.23 a 28.91 28.91 0 0 0 12.71 3 a 2 2 0 0 0 1 -0.17 a 2.08 2.08 0 0 0 0.8 -1.22 a 49.18 49.18 0 0 0 2.59 -13.54 a 10.16 10.16 0 0 0 -0.26 -3.48 c -0.34 -1.12 0.82 -0.65 -0.26 -1.09" stroke-linecap="round"/>
</g>
		<g transform="matrix(1 0 0 1 -4.6912 277.4874)">
<path style="stroke: none; stroke-width: 1; stroke-dasharray: none; stroke-linecap: butt; stroke-dashoffset: 0; stroke-linejoin: miter; stroke-miterlimit: 4; is-custom-font: none; font-file-url: none; fill: rgb(47,46,65); fill-rule: nonzero; opacity: 1;" transform=" translate(-595.3088, -727.4923)" d="M 648.21 714.88 C 629.74 716 611.5 710.58 593 710 a 27.61 27.61 0 0 0 -6.86 0.44 a 33.71 33.71 0 0 0 -6.8 2.64 c -9.91 4.61 -20.17 8.43 -30.42 12.25 l -11.76 4.38 c -2.36 0.87 -4.79 1.76 -7.3 1.61 c -1.12 -0.07 -2.49 -0.24 -3.13 0.7 c -1.91 2.83 -1 7 0.26 10.18 c 0.41 1 1.1 2.15 2.2 2.27 a 6.49 6.49 0 0 0 2.25 -0.57 c 2.14 -0.57 4.28 0.87 6.48 1.1 c 2.73 0.29 5.26 -1.26 7.83 -2.21 c 4.26 -1.57 8.92 -1.52 13.4 -2.27 c 7.52 -1.25 14.48 -4.74 21 -8.72 c 2.48 -1.51 5 -3.13 7.84 -3.68 c 3.27 -0.64 6.64 0.2 9.85 1.11 a 227.16 227.16 0 0 1 22.57 7.69 a 104 104 0 0 0 11.8 4.3 a 42.66 42.66 0 0 0 26.44 -1.54 c 3 -1.17 6.16 -3.23 6.33 -6.42 c 0.1 -1.82 -1.31 -3.42 -2.25 -5 c -0.61 -1 -1.21 -2 -1.87 -2.95 C 657.68 720.67 653.82 714.54 648.21 714.88 Z" stroke-linecap="round"/>
</g>
		<g transform="matrix(1 0 0 1 -4.6912 277.4874)">
<path style="stroke: none; stroke-width: 1; stroke-dasharray: none; stroke-linecap: butt; stroke-dashoffset: 0; stroke-linejoin: miter; stroke-miterlimit: 4; is-custom-font: none; font-file-url: none; fill: rgb(0,0,0); fill-rule: nonzero; opacity: 0.1;" transform=" translate(-595.3088, -727.4923)" d="M 648.21 714.88 C 629.74 716 611.5 710.58 593 710 a 27.61 27.61 0 0 0 -6.86 0.44 a 33.71 33.71 0 0 0 -6.8 2.64 c -9.91 4.61 -20.17 8.43 -30.42 12.25 l -11.76 4.38 c -2.36 0.87 -4.79 1.76 -7.3 1.61 c -1.12 -0.07 -2.49 -0.24 -3.13 0.7 c -1.91 2.83 -1 7 0.26 10.18 c 0.41 1 1.1 2.15 2.2 2.27 a 6.49 6.49 0 0 0 2.25 -0.57 c 2.14 -0.57 4.28 0.87 6.48 1.1 c 2.73 0.29 5.26 -1.26 7.83 -2.21 c 4.26 -1.57 8.92 -1.52 13.4 -2.27 c 7.52 -1.25 14.48 -4.74 21 -8.72 c 2.48 -1.51 5 -3.13 7.84 -3.68 c 3.27 -0.64 6.64 0.2 9.85 1.11 a 227.16 227.16 0 0 1 22.57 7.69 a 104 104 0 0 0 11.8 4.3 a 42.66 42.66 0 0 0 26.44 -1.54 c 3 -1.17 6.16 -3.23 6.33 -6.42 c 0.1 -1.82 -1.31 -3.42 -2.25 -5 c -0.61 -1 -1.21 -2 -1.87 -2.95 C 657.68 720.67 653.82 714.54 648.21 714.88 Z" stroke-linecap="round"/>
</g>
		<g transform="matrix(1 0 0 1 -37.9701 282.1374)">
<path style="stroke: none; stroke-width: 1; stroke-dasharray: none; stroke-linecap: butt; stroke-dashoffset: 0; stroke-linejoin: miter; stroke-miterlimit: 4; is-custom-font: none; font-file-url: none; fill: rgb(251,190,190); fill-rule: nonzero; opacity: 1;" transform=" translate(-562.0299, -732.1424)" d="M 554.93 734.62 q 4.34 1.47 8.74 2.72 c 1.65 -2.71 4.73 -4.59 5.43 -7.68 a 0.72 0.72 0 0 0 0 -0.41 a 0.74 0.74 0 0 0 -0.33 -0.3 a 16.35 16.35 0 0 0 -6.85 -2 c -1.9 -0.12 -2.76 1.86 -3.62 3.25 C 558 730.76 555.7 734.88 554.93 734.62 Z" stroke-linecap="round"/>
</g>
		<g transform="matrix(1 0 0 1 -49.283 292.9453)">
<path style="stroke: none; stroke-width: 1; stroke-dasharray: none; stroke-linecap: butt; stroke-dashoffset: 0; stroke-linejoin: miter; stroke-miterlimit: 4; is-custom-font: none; font-file-url: none; fill: rgb(47,46,65); fill-rule: nonzero; opacity: 1;" transform=" translate(-550.717, -742.9504)" d="M 559 732.64 a 6.29 6.29 0 0 1 -4.25 -2.79 c -0.41 -0.71 -0.84 -1.67 -1.66 -1.62 s -1.1 0.95 -1.27 1.7 a 48.57 48.57 0 0 1 -2.39 8.21 a 15.39 15.39 0 0 1 -5.11 6.71 c -1.07 0.74 -2.26 1.3 -3.31 2.08 a 21.91 21.91 0 0 1 -2.8 2.12 a 15.8 15.8 0 0 1 -2.15 0.8 a 14.76 14.76 0 0 0 -3.07 1.49 a 6.25 6.25 0 0 0 -2.09 2 a 3 3 0 0 0 -0.18 2.8 a 3 3 0 0 0 2 1.41 a 9.07 9.07 0 0 0 2.55 0.06 c 3.37 -0.25 6.73 -0.55 10.09 -0.85 a 28.68 28.68 0 0 0 4.23 -0.58 c 0.74 -0.18 1.46 -0.42 2.19 -0.61 a 18.54 18.54 0 0 1 3.85 -0.56 a 3.26 3.26 0 0 1 1.12 0.11 c 0.78 0.25 1.33 1 2.13 1.18 a 3.3 3.3 0 0 0 1.52 -0.2 a 36 36 0 0 1 7.48 -0.78 c 1.1 -0.06 2.4 -0.27 2.9 -1.26 c 0.63 -1.23 -0.41 -2.61 -0.83 -3.93 a 12.33 12.33 0 0 1 -0.35 -2.58 a 15.71 15.71 0 0 0 -1.85 -6.13 c -0.86 -1.58 -2 -3.32 -1.43 -5 a 4.38 4.38 0 0 0 0.57 -1.71 C 566.75 732 560.52 733 559 732.64 Z" stroke-linecap="round"/>
</g>
		<g transform="matrix(1 0 0 1 15.4588 230.8645)">
<path style="stroke: none; stroke-width: 1; stroke-dasharray: none; stroke-linecap: butt; stroke-dashoffset: 0; stroke-linejoin: miter; stroke-miterlimit: 4; is-custom-font: none; font-file-url: none; fill: rgb(251,190,190); fill-rule: nonzero; opacity: 1;" transform=" translate(-615.4588, -680.8694)" d="M 620.52 685.26 a 14.48 14.48 0 0 1 -7.36 -7.31 c -0.3 -0.7 -0.56 -1.43 -0.85 -2.14 a 16.37 16.37 0 0 0 -4.4 -6.1 a 2.11 2.11 0 0 0 -1.63 -0.69 a 1.74 1.74 0 0 0 -1.2 1.28 a 5.25 5.25 0 0 0 -0.13 2 a 37.64 37.64 0 0 0 0.8 4.61 l 0.9 4.08 a 8 8 0 0 0 0.56 1.82 a 6.34 6.34 0 0 0 1.5 1.79 c 0.82 0.76 1.65 1.49 2.49 2.2 a 8.82 8.82 0 0 0 1.51 1.1 a 9.26 9.26 0 0 0 2.81 0.82 c 3.67 0.68 7.4 1.66 10.49 4 c 0 0 0 -2.73 -0.07 -3 a 4 4 0 0 0 -0.78 -2.19 C 624 686.28 622 685.91 620.52 685.26 Z" stroke-linecap="round"/>
</g>
		<g transform="matrix(1 0 0 1 15.4588 230.8645)">
<path style="stroke: none; stroke-width: 1; stroke-dasharray: none; stroke-linecap: butt; stroke-dashoffset: 0; stroke-linejoin: miter; stroke-miterlimit: 4; is-custom-font: none; font-file-url: none; fill: rgb(0,0,0); fill-rule: nonzero; opacity: 0.1;" transform=" translate(-615.4588, -680.8694)" d="M 620.52 685.26 a 14.48 14.48 0 0 1 -7.36 -7.31 c -0.3 -0.7 -0.56 -1.43 -0.85 -2.14 a 16.37 16.37 0 0 0 -4.4 -6.1 a 2.11 2.11 0 0 0 -1.63 -0.69 a 1.74 1.74 0 0 0 -1.2 1.28 a 5.25 5.25 0 0 0 -0.13 2 a 37.64 37.64 0 0 0 0.8 4.61 l 0.9 4.08 a 8 8 0 0 0 0.56 1.82 a 6.34 6.34 0 0 0 1.5 1.79 c 0.82 0.76 1.65 1.49 2.49 2.2 a 8.82 8.82 0 0 0 1.51 1.1 a 9.26 9.26 0 0 0 2.81 0.82 c 3.67 0.68 7.4 1.66 10.49 4 c 0 0 0 -2.73 -0.07 -3 a 4 4 0 0 0 -0.78 -2.19 C 624 686.28 622 685.91 620.52 685.26 Z" stroke-linecap="round"/>
</g>
		<g transform="matrix(1 0 0 1 58.12 199.535)">
<ellipse style="stroke: none; stroke-width: 1; stroke-dasharray: none; stroke-linecap: butt; stroke-dashoffset: 0; stroke-linejoin: miter; stroke-miterlimit: 4; is-custom-font: none; font-file-url: none; fill: rgb(47,46,65); fill-rule: nonzero; opacity: 1;" cx="0" cy="0" rx="4.49" ry="4.52"/>
</g>
		<g transform="matrix(1 0 0 1 40.7063 223.05)">
<path style="stroke: none; stroke-width: 1; stroke-dasharray: none; stroke-linecap: butt; stroke-dashoffset: 0; stroke-linejoin: miter; stroke-miterlimit: 4; is-custom-font: none; font-file-url: none; fill: rgb(47,46,65); fill-rule: nonzero; opacity: 1;" transform=" translate(-640.7063, -673.055)" d="M 655.34 646.81 a 5 5 0 0 0 -3.55 0.51 a 4.78 4.78 0 0 0 -1.21 1.66 a 23.59 23.59 0 0 0 -2.34 5.5 c -0.4 1.65 -0.47 3.37 -1 5 c -0.92 3 -3.28 5.55 -3.55 8.68 c -0.12 1.4 0.11 3.05 -0.91 4 a 5.88 5.88 0 0 1 -0.81 0.57 a 6.14 6.14 0 0 0 -1.77 1.82 a 5.77 5.77 0 0 1 -1.25 1.73 c -0.92 0.68 -2.43 0.61 -2.88 1.66 s 0.71 2.27 0.44 3.41 c -0.22 0.93 -1.26 1.36 -2 2 a 6.92 6.92 0 0 0 -1.71 3.19 a 10.59 10.59 0 0 1 -8.59 -2.15 c 1.25 3.09 1.28 6.5 1.33 9.83 a 4.06 4.06 0 0 1 -0.79 3 c 3.58 0.08 7.06 1 10.55 1.83 a 7.24 7.24 0 0 0 4.6 0 a 7.6 7.6 0 0 0 2.11 -1.68 c 1.9 -1.93 3.89 -4 4.35 -6.69 a 36.34 36.34 0 0 0 0.08 -4.55 a 26.1 26.1 0 0 1 1.15 -5.51 a 64.45 64.45 0 0 0 2 -11.35 c 0.21 -2.37 2.25 -4.27 3.33 -6.39 c 2 -4 4.1 -8.15 4.26 -12.63 C 657.32 648.79 656.82 647 655.34 646.81 Z" stroke-linecap="round"/>
</g>
		<g transform="matrix(1 0 0 1 40.7063 223.05)">
<path style="stroke: none; stroke-width: 1; stroke-dasharray: none; stroke-linecap: butt; stroke-dashoffset: 0; stroke-linejoin: miter; stroke-miterlimit: 4; is-custom-font: none; font-file-url: none; fill: rgb(0,0,0); fill-rule: nonzero; opacity: 0.1;" transform=" translate(-640.7063, -673.055)" d="M 655.34 646.81 a 5 5 0 0 0 -3.55 0.51 a 4.78 4.78 0 0 0 -1.21 1.66 a 23.59 23.59 0 0 0 -2.34 5.5 c -0.4 1.65 -0.47 3.37 -1 5 c -0.92 3 -3.28 5.55 -3.55 8.68 c -0.12 1.4 0.11 3.05 -0.91 4 a 5.88 5.88 0 0 1 -0.81 0.57 a 6.14 6.14 0 0 0 -1.77 1.82 a 5.77 5.77 0 0 1 -1.25 1.73 c -0.92 0.68 -2.43 0.61 -2.88 1.66 s 0.71 2.27 0.44 3.41 c -0.22 0.93 -1.26 1.36 -2 2 a 6.92 6.92 0 0 0 -1.71 3.19 a 10.59 10.59 0 0 1 -8.59 -2.15 c 1.25 3.09 1.28 6.5 1.33 9.83 a 4.06 4.06 0 0 1 -0.79 3 c 3.58 0.08 7.06 1 10.55 1.83 a 7.24 7.24 0 0 0 4.6 0 a 7.6 7.6 0 0 0 2.11 -1.68 c 1.9 -1.93 3.89 -4 4.35 -6.69 a 36.34 36.34 0 0 0 0.08 -4.55 a 26.1 26.1 0 0 1 1.15 -5.51 a 64.45 64.45 0 0 0 2 -11.35 c 0.21 -2.37 2.25 -4.27 3.33 -6.39 c 2 -4 4.1 -8.15 4.26 -12.63 C 657.32 648.79 656.82 647 655.34 646.81 Z" stroke-linecap="round"/>
</g>
		<g transform="matrix(1 0 0 1 13.3641 263.9414)">
<path style="stroke: none; stroke-width: 1; stroke-dasharray: none; stroke-linecap: butt; stroke-dashoffset: 0; stroke-linejoin: miter; stroke-miterlimit: 4; is-custom-font: none; font-file-url: none; fill: rgb(47,46,65); fill-rule: nonzero; opacity: 1;" transform=" translate(-613.3641, -713.9464)" d="M 651.14 718.77 c -3.85 -1.83 -6.66 -5.24 -9.77 -8.16 c -5.94 -5.58 -13.2 -9.52 -19.44 -14.75 c -4.13 -3.46 -7.83 -7.49 -12.38 -10.39 a 30.74 30.74 0 0 0 -13.26 -4.65 a 3.68 3.68 0 0 0 -1.62 0.08 a 3.89 3.89 0 0 0 -1.51 1.2 a 47.12 47.12 0 0 0 -5.35 7.35 c -7.91 13.42 -19.14 24.71 -28.45 37.2 a 1.67 1.67 0 0 0 -0.11 2.26 l 1.89 3.71 c 1.06 2.07 2.76 4.49 5 4.08 a 5.55 5.55 0 0 0 2.65 -1.69 l 8.5 -8.13 l 8.91 -8.52 c 5.22 -5 10.53 -10.1 13.94 -16.48 c 2.66 4.61 7.38 7.63 10.62 11.86 c 1.23 1.6 2.23 3.37 3.33 5.07 c 1.77 2.73 3.77 5.29 5.77 7.84 l 10.23 13.05 a 19.79 19.79 0 0 0 4.73 4.8 c 2.42 1.53 5.37 1.94 8.22 2.19 a 105.89 105.89 0 0 0 11.55 0.42 c 2.94 -0.05 6 -0.24 8.6 -1.55 s 4.81 -4 4.67 -6.93 a 10.29 10.29 0 0 0 -1.47 -4.33 C 662.78 727.6 658 722 651.14 718.77 Z" stroke-linecap="round"/>
</g>
		<g transform="matrix(1 0 0 1 60.88 202.665)">
<ellipse style="stroke: none; stroke-width: 1; stroke-dasharray: none; stroke-linecap: butt; stroke-dashoffset: 0; stroke-linejoin: miter; stroke-miterlimit: 4; is-custom-font: none; font-file-url: none; fill: rgb(232,232,240); fill-rule: nonzero; opacity: 1;" cx="0" cy="0" rx="3.45" ry="3.47"/>
</g>
		<g transform="matrix(1 0 0 1 67.785 201.506)">
<path style="stroke: none; stroke-width: 1; stroke-dasharray: none; stroke-linecap: butt; stroke-dashoffset: 0; stroke-linejoin: miter; stroke-miterlimit: 4; is-custom-font: none; font-file-url: none; fill: rgb(251,190,190); fill-rule: nonzero; opacity: 1;" transform=" translate(-667.785, -651.511)" d="M 660.12 650.06 a 6.6 6.6 0 0 1 0.38 5 a 19.33 19.33 0 0 1 -2.22 4.6 a 22.92 22.92 0 0 1 -2.89 4.12 c 5.33 0.26 10.5 -1.83 15.2 -4.37 c 3.79 -2 7.57 -4.55 9.59 -8.36 a 4.44 4.44 0 0 1 -3.53 -0.65 a 13.22 13.22 0 0 1 -2.71 -2.52 l -2.67 -3 a 12 12 0 0 1 -1.65 -2.17 a 6 6 0 0 1 -0.71 -3.49 a 20 20 0 0 1 -3.54 2.94 c -1.91 1.25 -4 2.15 -5.93 3.38 c -0.68 0.44 -2.19 1.15 -1.8 2 S 659.58 649.1 660.12 650.06 Z" stroke-linecap="round"/>
</g>
		<g transform="matrix(1 0 0 1 67.785 201.506)">
<path style="stroke: none; stroke-width: 1; stroke-dasharray: none; stroke-linecap: butt; stroke-dashoffset: 0; stroke-linejoin: miter; stroke-miterlimit: 4; is-custom-font: none; font-file-url: none; fill: rgb(0,0,0); fill-rule: nonzero; opacity: 0.1;" transform=" translate(-667.785, -651.511)" d="M 660.12 650.06 a 6.6 6.6 0 0 1 0.38 5 a 19.33 19.33 0 0 1 -2.22 4.6 a 22.92 22.92 0 0 1 -2.89 4.12 c 5.33 0.26 10.5 -1.83 15.2 -4.37 c 3.79 -2 7.57 -4.55 9.59 -8.36 a 4.44 4.44 0 0 1 -3.53 -0.65 a 13.22 13.22 0 0 1 -2.71 -2.52 l -2.67 -3 a 12 12 0 0 1 -1.65 -2.17 a 6 6 0 0 1 -0.71 -3.49 a 20 20 0 0 1 -3.54 2.94 c -1.91 1.25 -4 2.15 -5.93 3.38 c -0.68 0.44 -2.19 1.15 -1.8 2 S 659.58 649.1 660.12 650.06 Z" stroke-linecap="round"/>
</g>
		<g transform="matrix(1 0 0 1 59.8087 247.2116)">
<path style="stroke: none; stroke-width: 1; stroke-dasharray: none; stroke-linecap: butt; stroke-dashoffset: 0; stroke-linejoin: miter; stroke-miterlimit: 4; is-custom-font: none; font-file-url: none; fill: rgb(232,232,240); fill-rule: nonzero; opacity: 1;" transform=" translate(-659.8087, -697.2167)" d="M 660.19 650.58 a 4.51 4.51 0 0 0 0 5.21 c 0.15 0.19 0.72 1.38 1 1.39 a 0.91 0.91 0 0 0 0.61 -0.31 a 42.39 42.39 0 0 0 3.38 -4 a 7.46 7.46 0 0 1 4.3 -2.82 c 2.09 -0.33 4.1 0.78 5.93 1.84 a 5.66 5.66 0 0 1 2 1.66 a 5.45 5.45 0 0 1 0.67 2.26 a 105.81 105.81 0 0 1 0.6 14.36 A 55.24 55.24 0 0 1 678 680.5 c -0.34 1.76 -0.85 3.48 -1.09 5.26 a 35.36 35.36 0 0 0 -0.21 4.72 v 6.6 a 16.75 16.75 0 0 0 0.26 3.61 a 44.11 44.11 0 0 0 1.45 4.19 a 27.61 27.61 0 0 1 1 5 l 0.9 6.83 c 0.29 2.16 0.5 4.51 -0.81 6.24 c -0.58 0.79 -1.36 1.41 -2 2.19 C 675.25 728 676 732.15 675 735.7 a 13.37 13.37 0 0 1 -4.34 6.65 c -1.59 1.35 -3.65 2.42 -5.71 2 c -2.77 -0.52 -4.44 -3.41 -5.2 -6.14 s -1 -5.71 -2.67 -8 c -1.34 -1.89 -3.41 -3.07 -5.28 -4.42 s -3.71 -3.08 -4.12 -5.36 c -0.18 -1 -0.07 -2 -0.17 -3 a 7.15 7.15 0 0 0 -4.42 -5.8 c -1.42 -0.55 -3.18 -0.75 -4 -2 a 9.63 9.63 0 0 0 4.16 -5.59 a 28.7 28.7 0 0 0 1 -7 l 0.48 -7.94 c 0.21 -3.55 0.31 -7.07 1.87 -10.26 c 0.7 -1.42 1.57 -2.76 2.29 -4.17 a 46.27 46.27 0 0 0 2.46 -6.12 c 1.13 -3.25 2.27 -6.51 3.28 -9.8 a 19.42 19.42 0 0 1 1.8 -4.57 C 657.36 652.68 658.59 650.88 660.19 650.58 Z" stroke-linecap="round"/>
</g>
		<g transform="matrix(1 0 0 1 50.9185 225.4306)">
<path style="stroke: none; stroke-width: 1; stroke-dasharray: none; stroke-linecap: butt; stroke-dashoffset: 0; stroke-linejoin: miter; stroke-miterlimit: 4; is-custom-font: none; font-file-url: none; fill: rgb(47,46,65); fill-rule: nonzero; opacity: 1;" transform=" translate(-650.9186, -675.4357)" d="M 642.56 702.17 l 2.1 0.07 l 0.45 -3.17 a 6.84 6.84 0 0 1 0.44 -1.85 a 11.78 11.78 0 0 1 1.21 -1.77 c 2.07 -2.92 1.92 -6.8 2.43 -10.35 c 0.68 -4.73 2.66 -9.17 4.62 -13.53 l 4.08 -9.09 a 13.08 13.08 0 0 0 0.87 -2.33 a 12.77 12.77 0 0 0 0.25 -2.69 c 0 -1.4 0.46 -6.51 0.49 -7.92 c 0 -0.52 -1.14 -0.23 -1.38 -0.69 c -0.51 -1 -1.21 1.72 -2.17 2.32 a 5.32 5.32 0 0 0 -1.88 2.75 c -0.88 2.29 -1.42 4.7 -2.24 7 a 14.39 14.39 0 0 1 -3.81 6.19 c -0.83 0.74 -1.8 1.32 -2.59 2.1 c -2.54 2.51 -2.78 6.47 -2.87 10 C 642.5 681.4 642.09 702.17 642.56 702.17 Z" stroke-linecap="round"/>
</g>
		<g transform="matrix(1 0 0 1 72.9505 238.9979)">
<path style="stroke: none; stroke-width: 1; stroke-dasharray: none; stroke-linecap: butt; stroke-dashoffset: 0; stroke-linejoin: miter; stroke-miterlimit: 4; is-custom-font: none; font-file-url: none; fill: rgb(47,46,65); fill-rule: nonzero; opacity: 1;" transform=" translate(-672.9505, -689.0029)" d="M 672.81 646.79 c -2 0.8 -3.16 3 -3.73 5.14 s -0.81 4.4 -1.91 6.3 c -2.56 4.46 -9.09 5.76 -10.9 10.58 a 19.35 19.35 0 0 0 -0.73 5 c -0.32 3.45 -1.46 6.79 -1.8 10.24 a 45.15 45.15 0 0 0 0.19 8.05 l 2.29 27.23 a 36 36 0 0 1 -0.69 12 a 11.53 11.53 0 0 0 6.86 -1.13 c 2.15 -1 4.11 -2.32 6.17 -3.46 c 3.55 -2 7.47 -3.35 10.57 -6 a 6.27 6.27 0 0 0 1.43 -1.57 a 13.51 13.51 0 0 0 1 -3.59 a 20.19 20.19 0 0 1 1 -2.82 a 83.75 83.75 0 0 0 3 -8.4 a 45.24 45.24 0 0 0 1.37 -5.77 c 0.25 -1.55 0.38 -3.12 0.52 -4.68 a 27.57 27.57 0 0 1 1.45 -7.2 a 57.73 57.73 0 0 0 3.33 -17.25 a 8.64 8.64 0 0 0 -0.17 -2.54 a 13.61 13.61 0 0 0 -1.38 -2.88 c -0.95 -1.79 -1.52 -3.76 -2.42 -5.57 c -2 -4.1 -5.59 -7.21 -9.34 -9.82 C 677 647.38 674.89 646 672.81 646.79 Z" stroke-linecap="round"/>
</g>
		<g transform="matrix(1 0 0 1 24.8831 246.2617)">
<path style="stroke: none; stroke-width: 1; stroke-dasharray: none; stroke-linecap: butt; stroke-dashoffset: 0; stroke-linejoin: miter; stroke-miterlimit: 4; is-custom-font: none; font-file-url: none; fill: rgb(251,190,190); fill-rule: nonzero; opacity: 1;" transform=" translate(-624.8831, -696.2666)" d="M 625.07 691.22 a 16.4 16.4 0 0 1 -4.35 -3.3 c -0.57 -0.67 -1 -1.42 -1.62 -2.08 a 10.69 10.69 0 0 0 -5.47 -3.12 a 26.39 26.39 0 0 0 -6.34 -0.61 a 11.26 11.26 0 0 0 -4.21 0.51 a 4.25 4.25 0 0 0 -2.8 3 c -0.31 1.7 0.8 3.35 2.13 4.43 a 10.29 10.29 0 0 0 4.25 2.07 a 35.27 35.27 0 0 0 3.84 0.45 c 7.56 0.79 14.31 4.9 20.93 8.65 q 8.73 4.93 17.8 9.23 a 35.63 35.63 0 0 0 0.3 -5.46 c 0 -1.36 -0.1 -3.44 -1.39 -4.24 c -1.5 -0.94 -4 -1.15 -5.66 -1.71 a 89.79 89.79 0 0 1 -11.39 -4.6 C 629 693.43 627 692.36 625.07 691.22 Z" stroke-linecap="round"/>
</g>
		<g transform="matrix(1 0 0 1 58.12 184.955)">
<ellipse style="stroke: none; stroke-width: 1; stroke-dasharray: none; stroke-linecap: butt; stroke-dashoffset: 0; stroke-linejoin: miter; stroke-miterlimit: 4; is-custom-font: none; font-file-url: none; fill: rgb(251,190,190); fill-rule: nonzero; opacity: 1;" cx="0" cy="0" rx="13.47" ry="13.55"/>
</g>
		<g transform="matrix(1 0 0 1 65.7024 239.2191)">
<path style="stroke: none; stroke-width: 1; stroke-dasharray: none; stroke-linecap: butt; stroke-dashoffset: 0; stroke-linejoin: miter; stroke-miterlimit: 4; is-custom-font: none; font-file-url: none; fill: rgb(47,46,65); fill-rule: nonzero; opacity: 1;" transform=" translate(-665.7024, -689.2241)" d="M 676.66 662.15 a 21.9 21.9 0 0 0 -2.61 4.87 c -1.67 3.43 -4.28 6.37 -5.58 10 c -1.38 3.77 -1.33 8.26 -4 11.23 a 3.87 3.87 0 0 0 -1.17 1.7 a 8.42 8.42 0 0 1 -0.14 1.23 c -0.38 1.08 -2.15 1.13 -2.48 2.23 c -0.09 0.32 0 0.67 -0.16 1 c -0.27 0.71 -1.2 0.81 -1.83 1.24 c -1.31 0.89 -1 2.95 -2 4.23 a 3.55 3.55 0 0 1 -3.36 1.18 a 12.46 12.46 0 0 1 -3.5 -1.31 a 3.14 3.14 0 0 0 -1.25 -0.39 a 2.55 2.55 0 0 0 -1.45 0.49 c -2.49 1.58 -3.66 4.72 -3.64 7.68 a 25 25 0 0 0 2.07 8.58 a 3.61 3.61 0 0 0 0.69 1.28 c 0.82 0.87 2.26 0.73 3.36 0.24 a 15.65 15.65 0 0 1 3.27 -1.46 c 2.08 -0.38 4.12 1.06 6.23 0.94 a 8.78 8.78 0 0 0 4.21 -1.86 A 23.3 23.3 0 0 0 669 710.4 c 0.92 -1.21 1.6 -2.59 2.41 -3.88 a 44 44 0 0 1 3.4 -4.54 l 7.77 -9.51 a 20.42 20.42 0 0 0 2.09 -2.89 a 21.17 21.17 0 0 0 1.63 -4.34 a 34.31 34.31 0 0 0 1.61 -7.73 a 30.84 30.84 0 0 0 -0.57 -6.49 a 22.55 22.55 0 0 0 -1.67 -6.17 C 683.94 661.35 679.83 658.45 676.66 662.15 Z" stroke-linecap="round"/>
</g>
		<g transform="matrix(1 0 0 1 69.8085 184.9097)">
<path style="stroke: none; stroke-width: 1; stroke-dasharray: none; stroke-linecap: butt; stroke-dashoffset: 0; stroke-linejoin: miter; stroke-miterlimit: 4; is-custom-font: none; font-file-url: none; fill: rgb(248,109,112); fill-rule: nonzero; opacity: 1;" transform=" translate(-669.8085, -634.9148)" d="M 703.72 644.5 a 15.17 15.17 0 0 0 -6.24 -12.33 a 18 18 0 0 0 -15.31 -17.55 a 17.5 17.5 0 0 0 -34.47 0.93 c -5.6 -1.26 -10.72 0.38 -11.65 3.83 c -1 3.61 3 7.83 8.92 9.43 a 16.39 16.39 0 0 0 5.71 0.57 a 17.55 17.55 0 0 0 12.06 7.5 a 17.93 17.93 0 0 0 13.15 13.57 a 15 15 0 0 0 4.06 5.62 c 0 0.42 -0.07 0.85 -0.07 1.29 a 11.41 11.41 0 1 0 22.8 0 a 12 12 0 0 0 -1.09 -5 A 15.33 15.33 0 0 0 703.72 644.5 Z" stroke-linecap="round"/>
</g>
		<g transform="matrix(1 0 0 1 52.9234 164.915)">
<path style="stroke: none; stroke-width: 1; stroke-dasharray: none; stroke-linecap: butt; stroke-dashoffset: 0; stroke-linejoin: miter; stroke-miterlimit: 4; is-custom-font: none; font-file-url: none; fill: rgb(0,0,0); fill-rule: nonzero; opacity: 0.1;" transform=" translate(-652.9234, -614.92)" d="M 639.85 620.07 c 0.93 -3.45 6 -5.09 11.65 -3.83 a 17.79 17.79 0 0 1 17.33 -15 c 0.39 0 0.78 0 1.16 0 a 17 17 0 0 0 -5 -0.74 a 17.79 17.79 0 0 0 -17.33 15 c -5.6 -1.26 -10.72 0.38 -11.65 3.83 c -1 3.61 3 7.83 8.92 9.43 a 17.13 17.13 0 0 0 3.37 0.58 C 642.68 627.7 638.9 623.6 639.85 620.07 Z" stroke-linecap="round"/>
</g>
		<g transform="matrix(1 0 0 1 71.17 199.565)">
<path style="stroke: none; stroke-width: 1; stroke-dasharray: none; stroke-linecap: butt; stroke-dashoffset: 0; stroke-linejoin: miter; stroke-miterlimit: 4; is-custom-font: none; font-file-url: none; fill: rgb(0,0,0); fill-rule: nonzero; opacity: 0.1;" transform=" translate(-671.17, -649.57)" d="M 683.68 658.06 c 0 -0.44 0 -0.87 0.07 -1.3 a 14.94 14.94 0 0 1 -4.06 -5.61 a 18 18 0 0 1 -13.15 -13.58 a 17.52 17.52 0 0 1 -12.06 -7.5 a 15.93 15.93 0 0 1 -3.36 -0.09 a 17.49 17.49 0 0 0 11.62 6.9 a 17.93 17.93 0 0 0 13.15 13.57 a 15 15 0 0 0 4.06 5.62 c 0 0.42 -0.07 0.85 -0.07 1.29 a 11.61 11.61 0 0 0 11.34 11.8 A 11.78 11.78 0 0 1 683.68 658.06 Z" stroke-linecap="round"/>
</g>
		<g transform="matrix(0.7963 -0.6049 0.6049 0.7963 62.6072 187.7138)">
<ellipse style="stroke: none; stroke-width: 1; stroke-dasharray: none; stroke-linecap: butt; stroke-dashoffset: 0; stroke-linejoin: miter; stroke-miterlimit: 4; is-custom-font: none; font-file-url: none; fill: rgb(251,190,190); fill-rule: nonzero; opacity: 1;" cx="0" cy="0" rx="2.08" ry="2.77"/>
</g>
		<g transform="matrix(1 0 0 1 -272 258.8135)">
<path style="stroke: none; stroke-width: 1; stroke-dasharray: none; stroke-linecap: butt; stroke-dashoffset: 0; stroke-linejoin: miter; stroke-miterlimit: 4; is-custom-font: none; font-file-url: none; fill: rgb(10,199,10); fill-rule: nonzero; opacity: 1;" transform=" translate(-328, -708.8186)" d="M 342.3 707.35 l 13.32 -7.83 a 32 32 0 0 0 -6.81 -8.15 l -25.12 7.81 l 19.68 -11.57 A 32 32 0 0 0 296 715.68 c 0 17.67 14.33 18.28 32 18.28 s 32 -0.61 32 -18.28 a 31.75 31.75 0 0 0 -2.75 -13 Z" stroke-linecap="round"/>
</g>
		<g transform="matrix(1 0 0 1 -276.945 269.05)">
<path style="stroke: none; stroke-width: 1; stroke-dasharray: none; stroke-linecap: butt; stroke-dashoffset: 0; stroke-linejoin: miter; stroke-miterlimit: 4; is-custom-font: none; font-file-url: none; fill: rgb(0,0,0); fill-rule: nonzero; opacity: 0.1;" transform=" translate(-323.055, -719.0551)" d="M 345.69 724.53 a 25 25 0 0 0 -4.72 -3.71 c -2.41 -1.61 -4.92 -3.25 -7.77 -3.79 c -2.5 -0.48 -5.08 -0.07 -7.63 -0.22 a 17.83 17.83 0 0 1 -11.69 -5.36 c -1.82 -1.88 -3.25 -4.19 -5.44 -5.63 a 11.9 11.9 0 0 0 -8.14 -1.49 a 19.79 19.79 0 0 0 -2.41 0.49 A 32 32 0 0 0 296 715.68 c 0 17.67 14.33 18.28 32 18.28 c 8.58 0 16.36 -0.14 22.11 -2.31 l -1 -1.79 A 24.88 24.88 0 0 0 345.69 724.53 Z" stroke-linecap="round"/>
</g>
</g>
</g>
</svg>